<?xml version="1.0" standalone="no"?>
<!DOCTYPE svg PUBLIC "-//W3C//DTD SVG 20010904//EN"
 "http://www.w3.org/TR/2001/REC-SVG-20010904/DTD/svg10.dtd">
<svg version="1.0" xmlns="http://www.w3.org/2000/svg"
 width="512.000000pt" height="512.000000pt" viewBox="0 0 512.000000 512.000000"
 preserveAspectRatio="xMidYMid meet">
<metadata>
Created by potrace 1.16, written by Peter Selinger 2001-2019
</metadata>
<g transform="translate(0.000000,512.000000) scale(0.100000,-0.100000)"
fill="#000000" stroke="none">
<path d="M2404 5035 c-348 -54 -640 -271 -788 -586 -65 -138 -88 -236 -93
-404 -6 -179 10 -284 63 -418 20 -49 34 -90 32 -91 -1 -2 -346 -208 -764 -459
-419 -251 -764 -464 -768 -473 -3 -8 -6 -580 -6 -1270 l0 -1254 80 0 80 0 0
1214 0 1213 736 442 737 442 15 -23 c8 -13 56 -64 106 -114 201 -198 436 -294
726 -294 290 0 525 96 726 294 50 50 98 101 106 114 l15 23 737 -442 736 -442
0 -1213 0 -1214 80 0 80 0 0 1254 c0 690 -3 1262 -6 1270 -4 9 -349 222 -768
473 -418 251 -762 457 -764 458 -1 1 13 42 32 91 53 138 69 242 63 419 -5 168
-28 266 -93 404 -196 416 -647 657 -1100 586z m376 -190 c36 -9 110 -38 165
-65 425 -206 606 -719 405 -1148 -211 -449 -751 -634 -1187 -408 -227 119
-394 331 -453 576 -27 116 -27 284 0 400 43 178 155 357 298 476 76 63 236
145 332 170 131 34 306 34 440 -1z"/>
<path d="M2640 4105 l-365 -365 -80 80 c-44 44 -85 80 -91 80 -5 0 -34 -25
-64 -55 l-55 -56 131 -129 c116 -115 134 -130 165 -130 31 0 64 31 444 410
l410 410 -60 60 c-33 33 -62 60 -65 60 -3 0 -169 -164 -370 -365z"/>
<path d="M580 2300 c-20 -20 -20 -33 -20 -1120 l0 -1100 80 0 80 0 0 1040 0
1040 1840 0 1840 0 0 -1040 0 -1040 80 0 80 0 0 1100 c0 1087 0 1100 -20 1120
-20 20 -33 20 -1980 20 -1947 0 -1960 0 -1980 -20z"/>
<path d="M1540 1820 c-19 -19 -20 -33 -20 -400 l0 -380 -100 0 c-154 0 -140
46 -140 -480 0 -427 1 -441 20 -460 20 -20 33 -20 1260 -20 1227 0 1240 0
1260 20 19 19 20 33 20 460 0 427 -1 441 -20 460 -19 19 -33 20 -280 20 l-260
0 0 380 c0 367 -1 381 -20 400 -20 20 -33 20 -860 20 -827 0 -840 0 -860 -20z
m380 -220 l0 -80 80 0 80 0 0 80 0 80 120 0 120 0 0 -320 0 -320 -320 0 -320
0 0 320 0 320 120 0 120 0 0 -80z m800 0 l0 -80 80 0 80 0 0 80 0 80 120 0
120 0 0 -320 0 -320 -320 0 -320 0 0 320 0 320 120 0 120 0 0 -80z m-1040
-800 l0 -80 80 0 80 0 0 80 0 80 120 0 120 0 0 -320 0 -320 -320 0 -320 0 0
320 0 320 120 0 120 0 0 -80z m800 0 l0 -80 80 0 80 0 0 80 0 80 120 0 120 0
0 -320 0 -320 -320 0 -320 0 0 320 0 320 120 0 120 0 0 -80z m800 0 l0 -80 80
0 80 0 0 80 0 80 120 0 120 0 0 -320 0 -320 -320 0 -320 0 0 320 0 320 120 0
120 0 0 -80z"/>
</g>
</svg>
