<?xml version="1.0" standalone="no"?>
<!DOCTYPE svg PUBLIC "-//W3C//DTD SVG 20010904//EN"
 "http://www.w3.org/TR/2001/REC-SVG-20010904/DTD/svg10.dtd">
<svg version="1.0" xmlns="http://www.w3.org/2000/svg"
 width="512.000000pt" height="512.000000pt" viewBox="0 0 512.000000 512.000000"
 preserveAspectRatio="xMidYMid meet">
<metadata>
Created by potrace 1.16, written by Peter Selinger 2001-2019
</metadata>
<g transform="translate(0.000000,512.000000) scale(0.100000,-0.100000)"
fill="#000000" stroke="none">
<path d="M1042 5020 c-193 -52 -367 -192 -454 -367 -64 -127 -82 -215 -75
-362 7 -160 40 -257 133 -388 84 -118 201 -203 351 -256 81 -28 99 -31 218
-31 147 -1 215 14 331 70 178 87 317 257 371 455 13 47 18 99 17 194 -1 112
-5 141 -27 210 -73 222 -239 387 -467 465 -95 33 -297 38 -398 10z m284 -141
c99 -18 217 -81 293 -157 114 -115 165 -241 164 -402 -1 -191 -93 -357 -256
-465 -88 -59 -185 -87 -297 -88 -506 -4 -758 604 -397 958 136 133 310 187
493 154z"/>
<path d="M690 3485 c-267 -54 -488 -207 -599 -415 -16 -30 -42 -91 -58 -135
l-28 -80 -3 -619 -3 -620 31 -63 c36 -72 83 -115 158 -143 64 -24 181 -27 242
-5 23 8 44 15 46 15 2 0 4 -245 4 -545 0 -520 1 -547 20 -598 44 -119 142
-187 279 -195 148 -8 261 51 317 165 l29 58 5 611 c5 582 6 613 24 633 44 48
134 31 155 -30 8 -22 11 -214 11 -614 0 -651 -1 -636 71 -719 22 -25 65 -57
97 -73 51 -25 68 -28 157 -28 95 0 103 2 163 34 66 36 110 83 140 148 16 35
17 126 22 1223 6 1306 0 1208 66 1274 66 65 73 66 406 66 167 0 332 5 367 10
85 14 149 48 204 110 55 61 81 132 81 220 0 130 -67 241 -182 297 l-57 28
-1050 2 c-832 1 -1063 -1 -1115 -12z m2122 -145 c130 -37 174 -206 76 -297
-53 -50 -75 -53 -407 -53 -192 0 -330 -4 -363 -11 -117 -25 -212 -98 -264
-205 l-29 -59 -5 -1180 c-5 -1090 -6 -1182 -22 -1211 -50 -92 -163 -120 -255
-64 -70 42 -67 18 -73 695 -5 601 -5 611 -27 650 -41 77 -103 115 -200 123
-74 6 -137 -14 -190 -61 -71 -63 -67 -25 -73 -707 -5 -593 -6 -616 -25 -648
-27 -44 -73 -71 -133 -79 -66 -7 -132 23 -164 75 l-23 37 -3 1198 -2 1197 -75
0 -74 0 -3 -549 c-3 -537 -3 -550 -24 -577 -35 -47 -70 -67 -128 -72 -68 -5
-124 23 -155 78 -21 37 -21 46 -21 586 0 618 2 632 70 772 88 177 266 305 490
353 78 16 163 18 1075 18 652 1 1003 -3 1027 -9z"/>
<path d="M3217 2966 c-202 -117 -376 -220 -385 -230 -15 -15 -18 -58 -22 -428
l-5 -411 -347 -200 c-243 -140 -349 -207 -357 -224 -15 -33 -15 -863 0 -896
10 -22 64 -55 618 -374 80 -46 157 -83 171 -83 15 0 166 81 373 200 l347 200
346 -200 c212 -122 356 -200 373 -200 24 0 732 400 774 437 16 15 17 50 17
468 0 432 -1 453 -19 469 -11 10 -169 104 -353 210 l-333 192 -5 412 c-5 395
-6 412 -25 430 -36 35 -753 442 -777 442 -13 0 -189 -96 -391 -214z m675 -116
c145 -84 266 -155 270 -159 4 -3 -118 -79 -273 -168 l-280 -161 -279 161
c-154 89 -276 165 -272 169 23 22 549 317 559 313 7 -2 131 -72 275 -155z
m-581 -496 c191 -110 276 -154 298 -154 23 0 116 49 334 174 l302 175 3 -321
c1 -177 -1 -325 -5 -329 -5 -4 -149 -89 -321 -188 l-313 -181 -317 184 -317
183 -3 328 -2 327 37 -22 c21 -12 158 -91 304 -176z m-136 -751 c204 -118 270
-161 262 -169 -16 -15 -537 -314 -547 -314 -10 0 -530 298 -547 314 -9 8 56
50 260 168 150 86 278 157 285 157 7 1 136 -70 287 -156z m1441 -2 c267 -154
275 -160 252 -174 -72 -45 -531 -307 -538 -307 -11 0 -531 298 -547 314 -9 8
54 49 260 168 150 87 278 157 285 158 7 0 136 -72 288 -159z m-2054 -476 c173
-100 313 -175 328 -175 14 0 152 74 320 171 162 94 301 173 308 176 9 4 12
-64 12 -319 l0 -324 -315 -182 c-174 -100 -320 -182 -325 -182 -6 0 -152 82
-325 182 l-315 182 0 323 c0 178 2 323 4 323 3 0 141 -79 308 -175z m1439 0
c169 -98 314 -175 328 -175 14 0 158 77 328 175 166 96 305 175 308 175 3 0 5
-145 5 -323 l0 -323 -311 -179 c-171 -99 -317 -181 -324 -183 -7 -2 -155 79
-329 179 l-316 182 0 324 c0 177 2 323 4 323 2 0 141 -79 307 -175z"/>
</g>
</svg>
