<?xml version="1.0" standalone="no"?>
<!DOCTYPE svg PUBLIC "-//W3C//DTD SVG 20010904//EN"
 "http://www.w3.org/TR/2001/REC-SVG-20010904/DTD/svg10.dtd">
<svg version="1.0" xmlns="http://www.w3.org/2000/svg"
 width="512.000000pt" height="512.000000pt" viewBox="0 0 512.000000 512.000000"
 preserveAspectRatio="xMidYMid meet">
<metadata>
Created by potrace 1.16, written by Peter Selinger 2001-2019
</metadata>
<g transform="translate(0.000000,512.000000) scale(0.100000,-0.100000)"
fill="#000000" stroke="none">
<path d="M1355 4554 c-643 -311 -1176 -572 -1182 -581 -19 -25 -19 -2801 -1
-2826 21 -27 2352 -1147 2388 -1147 37 0 2367 1120 2388 1147 18 25 18 2801 0
2826 -7 9 -540 271 -1184 582 -851 410 -1181 565 -1205 565 -24 -1 -391 -173
-1204 -566z m2275 -116 c583 -281 1057 -515 1053 -519 -5 -5 -140 -71 -301
-149 l-292 -140 -1057 510 c-582 281 -1061 514 -1065 518 -7 7 564 290 589
291 7 1 490 -229 1073 -511z m-795 -382 c580 -281 1055 -513 1055 -516 0 -9
-395 -200 -413 -200 -7 0 -456 214 -997 476 -542 262 -1019 492 -1060 511
l-75 36 210 103 c116 56 213 102 217 101 4 -1 482 -231 1063 -511z m-555 -324
l1115 -539 5 -466 c5 -466 5 -466 27 -489 15 -14 34 -22 55 -21 39 0 594 265
620 295 17 19 18 57 18 487 l1 466 312 149 c172 83 324 156 340 163 l27 14 0
-1273 -1 -1273 -1062 -512 c-584 -282 -1070 -515 -1080 -519 -16 -6 -17 57
-15 1266 l3 1271 260 125 c143 69 268 134 278 146 39 46 1 128 -59 128 -14 0
-147 -58 -295 -129 l-269 -130 -115 56 c-123 59 -146 62 -185 23 -28 -28 -26
-81 3 -108 12 -11 66 -41 120 -66 l97 -45 0 -1272 c0 -1206 -1 -1271 -17
-1264 -10 3 -496 237 -1080 518 l-1062 512 -1 1272 0 1273 52 -24 c29 -13 403
-193 831 -400 428 -207 789 -376 803 -376 59 0 95 83 57 129 -10 12 -378 195
-818 407 -440 212 -803 389 -808 393 -8 8 687 349 713 350 8 1 517 -241 1130
-537z m1680 -735 l0 -383 -200 -96 -200 -96 0 386 1 387 192 92 c106 51 195
92 200 93 4 0 7 -172 7 -383z"/>
<path d="M506 2049 c-20 -16 -26 -29 -26 -58 0 -20 6 -44 13 -53 6 -9 168 -91
359 -183 295 -142 351 -166 377 -160 60 13 80 83 39 128 -26 28 -684 347 -715
347 -11 0 -32 -9 -47 -21z"/>
<path d="M500 1690 c-26 -26 -27 -90 -2 -113 30 -27 372 -187 401 -187 61 0
99 66 66 117 -22 32 -369 203 -414 203 -18 0 -40 -9 -51 -20z"/>
</g>
</svg>
